<?xml version="1.0" encoding="UTF-8" standalone="no"?>
<!DOCTYPE svg PUBLIC "-//W3C//DTD SVG 1.1//EN" "http://www.w3.org/Graphics/SVG/1.1/DTD/svg11.dtd">
<svg width="100%" height="100%" viewBox="0 0 32 32" version="1.1" xmlns="http://www.w3.org/2000/svg" xmlns:xlink="http://www.w3.org/1999/xlink" xml:space="preserve" xmlns:serif="http://www.serif.com/" style="fill-rule:evenodd;clip-rule:evenodd;stroke-linejoin:round;stroke-miterlimit:2;">
    <g transform="matrix(1,0,0,1,-7.35412e-13,-68)">
        <g id="Palabras" transform="matrix(1.06667,0,0,1.06667,7.35412e-13,68)">
            <rect x="0" y="0" width="30" height="30" style="fill:none;"/>
            <g transform="matrix(1.54017,0,0,1.54017,-8.10256,-8.10256)">
                <g transform="matrix(1.875,0,0,1.875,20.7782,8.21053)">
                    <path d="M0,8.166L-4.93,8.166C-5.823,8.165 -6.547,7.441 -6.548,6.548L-6.548,0.385C-6.548,0.172 -6.376,0 -6.163,0C-5.95,0 -5.778,0.172 -5.778,0.385L-5.778,6.548C-5.777,7.016 -5.398,7.395 -4.93,7.396L-0.385,7.396L-0.385,1.695L-2.559,1.695C-2.772,1.695 -2.944,1.522 -2.944,1.31C-2.944,1.097 -2.772,0.925 -2.559,0.925L0,0.925C0.213,0.925 0.385,1.097 0.385,1.31L0.385,7.781C0.385,7.994 0.213,8.166 0,8.166" style="fill:rgb(23,198,79);fill-rule:nonzero;"/>
                </g>
                <g transform="matrix(1.875,0,0,1.875,10.9562,9.94509)">
                    <path d="M0,-1.079C-0.298,-1.079 -0.539,-0.838 -0.539,-0.54C-0.539,-0.242 -0.298,-0.001 0,-0.001L3.929,-0.001L3.929,-1.079L0,-1.079ZM4.314,0.77L0,0.77C-0.723,0.77 -1.31,0.183 -1.31,-0.54C-1.31,-1.263 -0.723,-1.849 0,-1.849L4.314,-1.849C4.527,-1.849 4.699,-1.677 4.699,-1.464L4.699,0.385C4.699,0.597 4.527,0.77 4.314,0.77" style="fill:rgb(23,198,79);fill-rule:nonzero;"/>
                </g>
                <g transform="matrix(1.875,0,0,1.875,17.8894,14.0847)">
                    <path d="M0,0.77L-3.081,0.77C-3.294,0.77 -3.467,0.598 -3.467,0.385C-3.467,0.172 -3.294,0 -3.081,0L0,0C0.213,0 0.385,0.172 0.385,0.385C0.385,0.598 0.213,0.77 0,0.77" style="fill:rgb(23,198,79);fill-rule:nonzero;"/>
                </g>
                <g transform="matrix(1.875,0,0,1.875,17.8894,17.9384)">
                    <path d="M0,0.77L-3.081,0.77C-3.294,0.77 -3.467,0.598 -3.467,0.385C-3.467,0.172 -3.294,0 -3.081,0L0,0C0.213,0 0.385,0.172 0.385,0.385C0.385,0.598 0.213,0.77 0,0.77" style="fill:rgb(23,198,79);fill-rule:nonzero;"/>
                </g>
            </g>
        </g>
    </g>
</svg>
